<?xml version="1.0" encoding="UTF-8" standalone="no"?>
<!-- Created with Inkscape (http://www.inkscape.org/) -->

<svg
   xmlns:dc="http://purl.org/dc/elements/1.1/"
   xmlns:cc="http://creativecommons.org/ns#"
   xmlns:rdf="http://www.w3.org/1999/02/22-rdf-syntax-ns#"
   xmlns:svg="http://www.w3.org/2000/svg"
   xmlns="http://www.w3.org/2000/svg"
   xmlns:sodipodi="http://sodipodi.sourceforge.net/DTD/sodipodi-0.dtd"
   xmlns:inkscape="http://www.inkscape.org/namespaces/inkscape"
   width="384"
   height="192"
   viewBox="0 0 101.6 50.800002"
   version="1.1"
   id="svg8"
   inkscape:version="0.92.3 (2405546, 2018-03-11)"
   sodipodi:docname="tilesheet forest.svg"
   inkscape:export-filename="C:\github\LDJam48\assets\tiles\forest.png"
   inkscape:export-xdpi="96"
   inkscape:export-ydpi="96">
  <defs
     id="defs2" />
  <sodipodi:namedview
     id="base"
     pagecolor="#ffffff"
     bordercolor="#666666"
     borderopacity="1.0"
     inkscape:pageopacity="0.0"
     inkscape:pageshadow="2"
     inkscape:zoom="1.979899"
     inkscape:cx="10.643283"
     inkscape:cy="73.277748"
     inkscape:document-units="px"
     inkscape:current-layer="layer1"
     showgrid="true"
     units="px"
     inkscape:window-width="3440"
     inkscape:window-height="1377"
     inkscape:window-x="-8"
     inkscape:window-y="-8"
     inkscape:window-maximized="1">
    <inkscape:grid
       type="xygrid"
       id="grid815"
       spacingx="8.4666668"
       spacingy="8.4666668" />
  </sodipodi:namedview>
  <metadata
     id="metadata5">
    <rdf:RDF>
      <cc:Work
         rdf:about="">
        <dc:format>image/svg+xml</dc:format>
        <dc:type
           rdf:resource="http://purl.org/dc/dcmitype/StillImage" />
        <dc:title></dc:title>
      </cc:Work>
    </rdf:RDF>
  </metadata>
  <g
     inkscape:label="Layer 1"
     inkscape:groupmode="layer"
     id="layer1"
     transform="translate(0,-246.19997)">
    <rect
       style="opacity:1;fill:#754d16;fill-opacity:1;stroke:none;stroke-width:1.8814522;stroke-linecap:round;stroke-linejoin:round;stroke-miterlimit:4;stroke-dasharray:none;stroke-dashoffset:14.5;stroke-opacity:1"
       id="rect817"
       width="16.933334"
       height="16.933334"
       x="0"
       y="263.1333" />
    <rect
       style="opacity:1;fill:#754d16;fill-opacity:1;stroke:none;stroke-width:5.94967508;stroke-linecap:round;stroke-linejoin:round;stroke-miterlimit:4;stroke-dasharray:none;stroke-dashoffset:14.5;stroke-opacity:1"
       id="rect822"
       width="67.733337"
       height="42.333347"
       x="0"
       y="254.66664" />
    <rect
       style="opacity:1;fill:#754d16;fill-opacity:1;stroke:none;stroke-width:2.30429888;stroke-linecap:round;stroke-linejoin:round;stroke-miterlimit:4;stroke-dasharray:none;stroke-dashoffset:14.5;stroke-opacity:1"
       id="rect824"
       width="25.4"
       height="16.933334"
       x="0"
       y="246.19997" />
    <rect
       style="opacity:1;fill:#754d16;fill-opacity:1;stroke:none;stroke-width:1.44914281;stroke-linecap:round;stroke-linejoin:round;stroke-miterlimit:4;stroke-dasharray:none;stroke-dashoffset:14.5;stroke-opacity:1"
       id="rect826"
       width="12.423161"
       height="13.692691"
       x="123.0435"
       y="266.37393" />
    <rect
       y="263.1333"
       x="118.53333"
       height="16.933334"
       width="16.933334"
       id="rect842"
       style="opacity:1;fill:#754d16;fill-opacity:1;stroke:none;stroke-width:1.8814522;stroke-linecap:round;stroke-linejoin:round;stroke-miterlimit:4;stroke-dasharray:none;stroke-dashoffset:14.5;stroke-opacity:1"
       ry="5.5792513" />
    <path
       sodipodi:nodetypes="ccccccccc"
       inkscape:connector-curvature="0"
       id="path844"
       d="m 121.35555,263.1333 h 14.11112 v 8.46667 c -2.3392,0 -1.53739,-1.79539 -4.23333,-1.79539 -2.69308,0 -2.00821,1.79539 -4.23333,1.79539 -1.86686,0 -1.89449,-1.6064 -4.23334,-1.6064 -2.55177,0 -1.82362,1.6064 -4.23333,1.6064 v -4.23333 z"
       style="opacity:1;fill:#3e8520;fill-opacity:1;stroke:none;stroke-width:1.33038759;stroke-linecap:round;stroke-linejoin:round;stroke-miterlimit:4;stroke-dasharray:none;stroke-dashoffset:14.5;stroke-opacity:1" />
    <path
       sodipodi:nodetypes="cccccccc"
       inkscape:connector-curvature="0"
       id="path846"
       d="m 121.35555,263.1333 14.11112,0 v 2.82222 c -2.24473,0 -2.24881,-1.53553 -4.23333,-1.53553 -2.69349,0 -2.17144,1.53553 -4.23333,1.53553 -2.03656,0 -1.8,-1.55915 -4.23334,-1.55915 -1.98438,0 -2.24671,1.55915 -4.23333,1.55915 z"
       style="opacity:1;fill:#69b24a;fill-opacity:1;stroke:none;stroke-width:0.76809961;stroke-linecap:round;stroke-linejoin:round;stroke-miterlimit:4;stroke-dasharray:none;stroke-dashoffset:14.5;stroke-opacity:1" />
    <rect
       y="246.19995"
       x="16.933334"
       height="16.933334"
       width="16.933334"
       id="rect848"
       style="opacity:1;fill:#754d16;fill-opacity:1;stroke:none;stroke-width:1.8814522;stroke-linecap:round;stroke-linejoin:round;stroke-miterlimit:4;stroke-dasharray:none;stroke-dashoffset:14.5;stroke-opacity:1" />
    <path
       sodipodi:nodetypes="cccccccc"
       inkscape:connector-curvature="0"
       id="path850"
       d="m 16.933342,246.19995 h 16.93333 v 8.46667 c 0,0 -1.53739,-1.79539 -4.23333,-1.79539 -2.69308,0 -2.00821,1.79539 -4.23333,1.79539 -1.86686,0 -1.89449,-1.6064 -4.23334,-1.6064 -2.55177,0 -4.23333,1.6064 -4.23333,1.6064 z"
       style="opacity:1;fill:#3e8520;fill-opacity:1;stroke:none;stroke-width:1.33038759;stroke-linecap:round;stroke-linejoin:round;stroke-miterlimit:4;stroke-dasharray:none;stroke-dashoffset:14.5;stroke-opacity:1" />
    <path
       sodipodi:nodetypes="cccccccc"
       inkscape:connector-curvature="0"
       id="path852"
       d="m 16.933342,246.19995 h 16.93333 v 2.82222 c -2.24473,0 -2.24881,-1.53553 -4.23333,-1.53553 -2.69349,0 -2.17144,1.53553 -4.23333,1.53553 -2.03656,0 -1.8,-1.55915 -4.23334,-1.55915 -1.98438,0 -2.24671,1.55915 -4.23333,1.55915 z"
       style="opacity:1;fill:#69b24a;fill-opacity:1;stroke:none;stroke-width:0.76809961;stroke-linecap:round;stroke-linejoin:round;stroke-miterlimit:4;stroke-dasharray:none;stroke-dashoffset:14.5;stroke-opacity:1" />
    <g
       id="g902">
      <rect
         y="246.19995"
         x="16.933334"
         height="16.933334"
         width="16.933334"
         id="rect854"
         style="opacity:1;fill:#754d16;fill-opacity:1;stroke:none;stroke-width:1.8814522;stroke-linecap:round;stroke-linejoin:round;stroke-miterlimit:4;stroke-dasharray:none;stroke-dashoffset:14.5;stroke-opacity:1" />
      <path
         sodipodi:nodetypes="cccccccc"
         inkscape:connector-curvature="0"
         id="path856"
         d="m 16.933342,246.19995 h 16.93333 v 8.46667 c -2.3392,0 -1.53739,-1.79539 -4.23333,-1.79539 -2.69308,0 -2.00821,1.79539 -4.23333,1.79539 -1.86686,0 -1.89449,-1.6064 -4.23334,-1.6064 -2.55177,0 -1.82362,1.6064 -4.23333,1.6064 z"
         style="opacity:1;fill:#3e8520;fill-opacity:1;stroke:none;stroke-width:1.33038759;stroke-linecap:round;stroke-linejoin:round;stroke-miterlimit:4;stroke-dasharray:none;stroke-dashoffset:14.5;stroke-opacity:1" />
      <path
         sodipodi:nodetypes="cccccccc"
         inkscape:connector-curvature="0"
         id="path858"
         d="m 16.933342,246.19995 h 16.93333 v 2.82222 c -2.24473,0 -2.24881,-1.53553 -4.23333,-1.53553 -2.69349,0 -2.17144,1.53553 -4.23333,1.53553 -2.03656,0 -1.8,-1.55915 -4.23334,-1.55915 -1.98438,0 -2.24671,1.55915 -4.23333,1.55915 z"
         style="opacity:1;fill:#69b24a;fill-opacity:1;stroke:none;stroke-width:0.76809961;stroke-linecap:round;stroke-linejoin:round;stroke-miterlimit:4;stroke-dasharray:none;stroke-dashoffset:14.5;stroke-opacity:1" />
    </g>
    <path
       style="opacity:1;fill:#3e8520;fill-opacity:1;stroke:none;stroke-width:1.33038759;stroke-linecap:round;stroke-linejoin:round;stroke-miterlimit:4;stroke-dasharray:none;stroke-dashoffset:14.5;stroke-opacity:1"
       d="m 118.53333,280.06663 v -8.46666 c 0,0 6.67128,-6.92928 6.67128,-4.23334 0,2.69308 1.79539,2.00821 1.79539,4.23333 0,1.86686 -1.6064,1.89449 -1.6064,4.23334 0,2.55177 1.6064,1.82362 1.6064,4.23333 z"
       id="path860"
       inkscape:connector-curvature="0"
       sodipodi:nodetypes="ccccccc" />
    <path
       style="opacity:1;fill:#69b24a;fill-opacity:1;stroke:none;stroke-width:0.76809961;stroke-linecap:round;stroke-linejoin:round;stroke-miterlimit:4;stroke-dasharray:none;stroke-dashoffset:14.5;stroke-opacity:1"
       d="m 118.53333,280.06663 v -14.06018 c 0,-2.53928 2.82222,-2.87315 2.82222,-2.87315 0,2.24473 -1.53553,2.24881 -1.53553,4.23333 0,2.69349 1.53553,2.17144 1.53553,4.23333 0,2.03656 -1.55915,1.8 -1.55915,4.23334 0,1.98438 1.55915,2.24671 1.55915,4.23333 z"
       id="path862"
       inkscape:connector-curvature="0"
       sodipodi:nodetypes="cccccccc" />
    <g
       id="g883"
       transform="translate(-84.666664,-16.93335)">
      <rect
         style="opacity:1;fill:#754d16;fill-opacity:1;stroke:none;stroke-width:1.44914281;stroke-linecap:round;stroke-linejoin:round;stroke-miterlimit:4;stroke-dasharray:none;stroke-dashoffset:14.5;stroke-opacity:1"
         id="rect865"
         width="12.423161"
         height="13.692691"
         x="123.0435"
         y="266.37393" />
      <rect
         y="263.1333"
         x="118.53333"
         height="16.933334"
         width="16.933334"
         id="rect867"
         style="opacity:1;fill:#754d16;fill-opacity:1;stroke:none;stroke-width:1.8814522;stroke-linecap:round;stroke-linejoin:round;stroke-miterlimit:4;stroke-dasharray:none;stroke-dashoffset:14.5;stroke-opacity:1"
         ry="5.5792513" />
      <path
         sodipodi:nodetypes="ccccccccc"
         inkscape:connector-curvature="0"
         id="path869"
         d="m 121.35555,263.1333 h 14.11112 v 8.46667 c -2.3392,0 -1.53739,-1.79539 -4.23333,-1.79539 -2.69308,0 -2.00821,1.79539 -4.23333,1.79539 -1.86686,0 -1.89449,-1.6064 -4.23334,-1.6064 -2.55177,0 -1.82362,1.6064 -4.23333,1.6064 v -4.23333 z"
         style="opacity:1;fill:#3e8520;fill-opacity:1;stroke:none;stroke-width:1.33038759;stroke-linecap:round;stroke-linejoin:round;stroke-miterlimit:4;stroke-dasharray:none;stroke-dashoffset:14.5;stroke-opacity:1" />
      <path
         sodipodi:nodetypes="cccccccc"
         inkscape:connector-curvature="0"
         id="path871"
         d="m 121.35555,263.1333 h 14.11112 v 2.82222 c -2.24473,0 -2.24881,-1.53553 -4.23333,-1.53553 -2.69349,0 -2.17144,1.53553 -4.23333,1.53553 -2.03656,0 -1.8,-1.55915 -4.23334,-1.55915 -1.98438,0 -2.24671,1.55915 -4.23333,1.55915 z"
         style="opacity:1;fill:#69b24a;fill-opacity:1;stroke:none;stroke-width:0.76809961;stroke-linecap:round;stroke-linejoin:round;stroke-miterlimit:4;stroke-dasharray:none;stroke-dashoffset:14.5;stroke-opacity:1" />
      <path
         style="opacity:1;fill:#3e8520;fill-opacity:1;stroke:none;stroke-width:1.33038759;stroke-linecap:round;stroke-linejoin:round;stroke-miterlimit:4;stroke-dasharray:none;stroke-dashoffset:14.5;stroke-opacity:1"
         d="m 118.53333,280.06663 v -8.46666 c 0,0 6.67128,-6.92928 6.67128,-4.23334 0,2.69308 1.79539,2.00821 1.79539,4.23333 0,1.86686 -1.6064,1.89449 -1.6064,4.23334 0,2.55177 1.6064,1.82362 1.6064,4.23333 z"
         id="path873"
         inkscape:connector-curvature="0"
         sodipodi:nodetypes="ccccccc" />
      <path
         style="opacity:1;fill:#69b24a;fill-opacity:1;stroke:none;stroke-width:0.76809961;stroke-linecap:round;stroke-linejoin:round;stroke-miterlimit:4;stroke-dasharray:none;stroke-dashoffset:14.5;stroke-opacity:1"
         d="m 118.53333,280.06663 v -14.06018 c 0,-2.53928 2.82222,-2.87315 2.82222,-2.87315 0,2.24473 -1.53553,2.24881 -1.53553,4.23333 0,2.69349 1.53553,2.17144 1.53553,4.23333 0,2.03656 -1.55915,1.8 -1.55915,4.23334 0,1.98438 1.55915,2.24671 1.55915,4.23333 z"
         id="path875"
         inkscape:connector-curvature="0"
         sodipodi:nodetypes="cccccccc" />
    </g>
    <g
       transform="matrix(-1,0,0,1,186.26668,-16.93335)"
       id="g897">
      <rect
         y="266.37393"
         x="123.0435"
         height="13.692691"
         width="12.423161"
         id="rect885"
         style="opacity:1;fill:#754d16;fill-opacity:1;stroke:none;stroke-width:1.44914281;stroke-linecap:round;stroke-linejoin:round;stroke-miterlimit:4;stroke-dasharray:none;stroke-dashoffset:14.5;stroke-opacity:1" />
      <rect
         ry="5.5792513"
         style="opacity:1;fill:#754d16;fill-opacity:1;stroke:none;stroke-width:1.8814522;stroke-linecap:round;stroke-linejoin:round;stroke-miterlimit:4;stroke-dasharray:none;stroke-dashoffset:14.5;stroke-opacity:1"
         id="rect887"
         width="16.933334"
         height="16.933334"
         x="118.53333"
         y="263.1333" />
      <path
         style="opacity:1;fill:#3e8520;fill-opacity:1;stroke:none;stroke-width:1.33038759;stroke-linecap:round;stroke-linejoin:round;stroke-miterlimit:4;stroke-dasharray:none;stroke-dashoffset:14.5;stroke-opacity:1"
         d="m 121.35555,263.1333 h 14.11112 v 8.46667 c -2.3392,0 -1.53739,-1.79539 -4.23333,-1.79539 -2.69308,0 -2.00821,1.79539 -4.23333,1.79539 -1.86686,0 -1.89449,-1.6064 -4.23334,-1.6064 -2.55177,0 -1.82362,1.6064 -4.23333,1.6064 v -4.23333 z"
         id="path889"
         inkscape:connector-curvature="0"
         sodipodi:nodetypes="ccccccccc" />
      <path
         style="opacity:1;fill:#69b24a;fill-opacity:1;stroke:none;stroke-width:0.76809961;stroke-linecap:round;stroke-linejoin:round;stroke-miterlimit:4;stroke-dasharray:none;stroke-dashoffset:14.5;stroke-opacity:1"
         d="m 121.35555,263.1333 h 14.11112 v 2.82222 c -2.24473,0 -2.24881,-1.53553 -4.23333,-1.53553 -2.69349,0 -2.17144,1.53553 -4.23333,1.53553 -2.03656,0 -1.8,-1.55915 -4.23334,-1.55915 -1.98438,0 -2.24671,1.55915 -4.23333,1.55915 z"
         id="path891"
         inkscape:connector-curvature="0"
         sodipodi:nodetypes="cccccccc" />
      <path
         sodipodi:nodetypes="ccccccc"
         inkscape:connector-curvature="0"
         id="path893"
         d="m 118.53333,280.06663 v -8.46666 c 0,0 6.67128,-6.92928 6.67128,-4.23334 0,2.69308 1.79539,2.00821 1.79539,4.23333 0,1.86686 -1.6064,1.89449 -1.6064,4.23334 0,2.55177 1.6064,1.82362 1.6064,4.23333 z"
         style="opacity:1;fill:#3e8520;fill-opacity:1;stroke:none;stroke-width:1.33038759;stroke-linecap:round;stroke-linejoin:round;stroke-miterlimit:4;stroke-dasharray:none;stroke-dashoffset:14.5;stroke-opacity:1" />
      <path
         sodipodi:nodetypes="cccccccc"
         inkscape:connector-curvature="0"
         id="path895"
         d="m 118.53333,280.06663 v -14.06018 c 0,-2.53928 2.82222,-2.87315 2.82222,-2.87315 0,2.24473 -1.53553,2.24881 -1.53553,4.23333 0,2.69349 1.53553,2.17144 1.53553,4.23333 0,2.03656 -1.55915,1.8 -1.55915,4.23334 0,1.98438 1.55915,2.24671 1.55915,4.23333 z"
         style="opacity:1;fill:#69b24a;fill-opacity:1;stroke:none;stroke-width:0.76809961;stroke-linecap:round;stroke-linejoin:round;stroke-miterlimit:4;stroke-dasharray:none;stroke-dashoffset:14.5;stroke-opacity:1" />
    </g>
    <rect
       y="280.06665"
       x="152.39999"
       height="16.933334"
       width="16.933334"
       id="rect904"
       style="opacity:1;fill:#754d16;fill-opacity:1;stroke:none;stroke-width:1.8814522;stroke-linecap:round;stroke-linejoin:round;stroke-miterlimit:4;stroke-dasharray:none;stroke-dashoffset:14.5;stroke-opacity:1" />
    <path
       sodipodi:nodetypes="cccccccc"
       inkscape:connector-curvature="0"
       id="path906"
       d="m 152.4,280.06664 h 16.93333 v 8.46667 c -2.3392,0 -1.53739,-1.79539 -4.23333,-1.79539 -2.69308,0 -2.00821,1.79539 -4.23333,1.79539 -1.86686,0 -1.89449,-1.6064 -4.23334,-1.6064 -2.55177,0 -1.82362,1.6064 -4.23333,1.6064 z"
       style="opacity:1;fill:#3e8520;fill-opacity:1;stroke:none;stroke-width:1.33038759;stroke-linecap:round;stroke-linejoin:round;stroke-miterlimit:4;stroke-dasharray:none;stroke-dashoffset:14.5;stroke-opacity:1" />
    <path
       sodipodi:nodetypes="cccccccc"
       inkscape:connector-curvature="0"
       id="path908"
       d="m 152.40001,280.06664 h 16.93333 v 2.82222 c -2.24473,0 -2.24881,-1.53553 -4.23333,-1.53553 -2.69349,0 -2.17144,1.53553 -4.23333,1.53553 -2.03656,0 -1.8,-1.55915 -4.23334,-1.55915 -1.98438,0 -2.24671,1.55915 -4.23333,1.55915 z"
       style="opacity:1;fill:#69b24a;fill-opacity:1;stroke:none;stroke-width:0.76809961;stroke-linecap:round;stroke-linejoin:round;stroke-miterlimit:4;stroke-dasharray:none;stroke-dashoffset:14.5;stroke-opacity:1" />
    <g
       transform="rotate(-90,110.06667,186.9333)"
       id="g918">
      <rect
         y="246.19995"
         x="16.933334"
         height="16.933334"
         width="16.933334"
         id="rect912"
         style="opacity:1;fill:#754d16;fill-opacity:1;stroke:none;stroke-width:1.8814522;stroke-linecap:round;stroke-linejoin:round;stroke-miterlimit:4;stroke-dasharray:none;stroke-dashoffset:14.5;stroke-opacity:1" />
      <path
         sodipodi:nodetypes="cccccccc"
         inkscape:connector-curvature="0"
         id="path914"
         d="m 16.933342,246.19995 h 16.93333 v 8.46667 c -2.3392,0 -1.53739,-1.79539 -4.23333,-1.79539 -2.69308,0 -2.00821,1.79539 -4.23333,1.79539 -1.86686,0 -1.89449,-1.6064 -4.23334,-1.6064 -2.55177,0 -1.82362,1.6064 -4.23333,1.6064 z"
         style="opacity:1;fill:#3e8520;fill-opacity:1;stroke:none;stroke-width:1.33038759;stroke-linecap:round;stroke-linejoin:round;stroke-miterlimit:4;stroke-dasharray:none;stroke-dashoffset:14.5;stroke-opacity:1" />
      <path
         sodipodi:nodetypes="cccccccc"
         inkscape:connector-curvature="0"
         id="path916"
         d="m 16.933342,246.19995 h 16.93333 v 2.82222 c -2.24473,0 -2.24881,-1.53553 -4.23333,-1.53553 -2.69349,0 -2.17144,1.53553 -4.23333,1.53553 -2.03656,0 -1.8,-1.55915 -4.23334,-1.55915 -1.98438,0 -2.24671,1.55915 -4.23333,1.55915 z"
         style="opacity:1;fill:#69b24a;fill-opacity:1;stroke:none;stroke-width:0.76809961;stroke-linecap:round;stroke-linejoin:round;stroke-miterlimit:4;stroke-dasharray:none;stroke-dashoffset:14.5;stroke-opacity:1" />
    </g>
    <g
       id="g926"
       transform="rotate(-90,42.333336,254.66664)">
      <rect
         style="opacity:1;fill:#754d16;fill-opacity:1;stroke:none;stroke-width:1.8814522;stroke-linecap:round;stroke-linejoin:round;stroke-miterlimit:4;stroke-dasharray:none;stroke-dashoffset:14.5;stroke-opacity:1"
         id="rect920"
         width="16.933334"
         height="16.933334"
         x="16.933334"
         y="246.19995" />
      <path
         style="opacity:1;fill:#3e8520;fill-opacity:1;stroke:none;stroke-width:1.33038759;stroke-linecap:round;stroke-linejoin:round;stroke-miterlimit:4;stroke-dasharray:none;stroke-dashoffset:14.5;stroke-opacity:1"
         d="m 16.933342,246.19995 h 16.93333 v 8.46667 c -2.3392,0 -1.53739,-1.79539 -4.23333,-1.79539 -2.69308,0 -2.00821,1.79539 -4.23333,1.79539 -1.86686,0 -1.89449,-1.6064 -4.23334,-1.6064 -2.55177,0 -1.82362,1.6064 -4.23333,1.6064 z"
         id="path922"
         inkscape:connector-curvature="0"
         sodipodi:nodetypes="cccccccc" />
      <path
         style="opacity:1;fill:#69b24a;fill-opacity:1;stroke:none;stroke-width:0.76809961;stroke-linecap:round;stroke-linejoin:round;stroke-miterlimit:4;stroke-dasharray:none;stroke-dashoffset:14.5;stroke-opacity:1"
         d="m 16.933342,246.19995 h 16.93333 v 2.82222 c -2.24473,0 -2.24881,-1.53553 -4.23333,-1.53553 -2.69349,0 -2.17144,1.53553 -4.23333,1.53553 -2.03656,0 -1.8,-1.55915 -4.23334,-1.55915 -1.98438,0 -2.24671,1.55915 -4.23333,1.55915 z"
         id="path924"
         inkscape:connector-curvature="0"
         sodipodi:nodetypes="cccccccc" />
    </g>
    <g
       transform="matrix(0,-1,-1,0,313.93327,296.99997)"
       id="g934">
      <rect
         y="246.19995"
         x="16.933334"
         height="16.933334"
         width="16.933334"
         id="rect928"
         style="opacity:1;fill:#754d16;fill-opacity:1;stroke:none;stroke-width:1.8814522;stroke-linecap:round;stroke-linejoin:round;stroke-miterlimit:4;stroke-dasharray:none;stroke-dashoffset:14.5;stroke-opacity:1" />
      <path
         sodipodi:nodetypes="cccccccc"
         inkscape:connector-curvature="0"
         id="path930"
         d="m 16.933342,246.19995 h 16.93333 v 8.46667 c -2.3392,0 -1.53739,-1.79539 -4.23333,-1.79539 -2.69308,0 -2.00821,1.79539 -4.23333,1.79539 -1.86686,0 -1.89449,-1.6064 -4.23334,-1.6064 -2.55177,0 -1.82362,1.6064 -4.23333,1.6064 z"
         style="opacity:1;fill:#3e8520;fill-opacity:1;stroke:none;stroke-width:1.33038759;stroke-linecap:round;stroke-linejoin:round;stroke-miterlimit:4;stroke-dasharray:none;stroke-dashoffset:14.5;stroke-opacity:1" />
      <path
         sodipodi:nodetypes="cccccccc"
         inkscape:connector-curvature="0"
         id="path932"
         d="m 16.933342,246.19995 h 16.93333 v 2.82222 c -2.24473,0 -2.24881,-1.53553 -4.23333,-1.53553 -2.69349,0 -2.17144,1.53553 -4.23333,1.53553 -2.03656,0 -1.8,-1.55915 -4.23334,-1.55915 -1.98438,0 -2.24671,1.55915 -4.23333,1.55915 z"
         style="opacity:1;fill:#69b24a;fill-opacity:1;stroke:none;stroke-width:0.76809961;stroke-linecap:round;stroke-linejoin:round;stroke-miterlimit:4;stroke-dasharray:none;stroke-dashoffset:14.5;stroke-opacity:1" />
    </g>
    <g
       id="g948">
      <rect
         style="opacity:1;fill:#754d16;fill-opacity:1;stroke:none;stroke-width:1.8814522;stroke-linecap:round;stroke-linejoin:round;stroke-miterlimit:4;stroke-dasharray:none;stroke-dashoffset:14.5;stroke-opacity:1"
         id="rect936"
         width="16.933334"
         height="16.933334"
         x="169.33334"
         y="280.06665" />
      <path
         sodipodi:nodetypes="ccccc"
         inkscape:connector-curvature="0"
         id="path943"
         d="m 169.33334,280.06664 8.46665,-1e-5 c 0,3.80874 0.3155,5.01079 -1.30292,6.6292 -1.32007,1.32007 -2.65046,1.83748 -7.16373,1.83748 z"
         style="opacity:1;fill:#3e8520;fill-opacity:1;stroke:none;stroke-width:1.33038759;stroke-linecap:round;stroke-linejoin:round;stroke-miterlimit:4;stroke-dasharray:none;stroke-dashoffset:14.5;stroke-opacity:1" />
      <path
         sodipodi:nodetypes="cccc"
         inkscape:connector-curvature="0"
         id="path941"
         d="m 169.33334,280.06664 2.8222,-1e-5 c 0,0 -0.83558,2.82223 -2.8222,2.82223 z"
         style="opacity:1;fill:#69b24a;fill-opacity:1;stroke:none;stroke-width:0.76809961;stroke-linecap:round;stroke-linejoin:round;stroke-miterlimit:4;stroke-dasharray:none;stroke-dashoffset:14.5;stroke-opacity:1" />
    </g>
    <g
       id="g956"
       transform="translate(-135.46667,3.9999999e-6)">
      <rect
         y="280.06665"
         x="169.33334"
         height="16.933334"
         width="16.933334"
         id="rect950"
         style="opacity:1;fill:#754d16;fill-opacity:1;stroke:none;stroke-width:1.8814522;stroke-linecap:round;stroke-linejoin:round;stroke-miterlimit:4;stroke-dasharray:none;stroke-dashoffset:14.5;stroke-opacity:1" />
      <path
         style="opacity:1;fill:#3e8520;fill-opacity:1;stroke:none;stroke-width:1.33038759;stroke-linecap:round;stroke-linejoin:round;stroke-miterlimit:4;stroke-dasharray:none;stroke-dashoffset:14.5;stroke-opacity:1"
         d="m 169.33334,280.06664 8.46665,-1e-5 c 0,3.80874 0.3155,5.01079 -1.30292,6.6292 -1.32007,1.32007 -2.65046,1.83748 -7.16373,1.83748 z"
         id="path952"
         inkscape:connector-curvature="0"
         sodipodi:nodetypes="ccccc" />
      <path
         style="opacity:1;fill:#69b24a;fill-opacity:1;stroke:none;stroke-width:0.76809961;stroke-linecap:round;stroke-linejoin:round;stroke-miterlimit:4;stroke-dasharray:none;stroke-dashoffset:14.5;stroke-opacity:1"
         d="m 169.33334,280.06664 2.8222,-1e-5 c 0,0 -0.83558,2.82223 -2.8222,2.82223 z"
         id="path954"
         inkscape:connector-curvature="0"
         sodipodi:nodetypes="cccc" />
    </g>
    <g
       transform="matrix(-1,0,0,1,237.06667,-8.7412109e-6)"
       id="g964">
      <rect
         style="opacity:1;fill:#754d16;fill-opacity:1;stroke:none;stroke-width:1.8814522;stroke-linecap:round;stroke-linejoin:round;stroke-miterlimit:4;stroke-dasharray:none;stroke-dashoffset:14.5;stroke-opacity:1"
         id="rect958"
         width="16.933334"
         height="16.933334"
         x="169.33334"
         y="280.06665" />
      <path
         sodipodi:nodetypes="ccccc"
         inkscape:connector-curvature="0"
         id="path960"
         d="m 169.33334,280.06664 8.46665,-1e-5 c 0,3.80874 0.3155,5.01079 -1.30292,6.6292 -1.32007,1.32007 -2.65046,1.83748 -7.16373,1.83748 z"
         style="opacity:1;fill:#3e8520;fill-opacity:1;stroke:none;stroke-width:1.33038759;stroke-linecap:round;stroke-linejoin:round;stroke-miterlimit:4;stroke-dasharray:none;stroke-dashoffset:14.5;stroke-opacity:1" />
      <path
         sodipodi:nodetypes="cccc"
         inkscape:connector-curvature="0"
         id="path962"
         d="m 169.33334,280.06664 2.8222,-1e-5 c 0,0 -0.83558,2.82223 -2.8222,2.82223 z"
         style="opacity:1;fill:#69b24a;fill-opacity:1;stroke:none;stroke-width:0.76809961;stroke-linecap:round;stroke-linejoin:round;stroke-miterlimit:4;stroke-dasharray:none;stroke-dashoffset:14.5;stroke-opacity:1" />
    </g>
    <path
       style="fill:#542c0b;fill-opacity:1;stroke:none;stroke-width:0.10650816px;stroke-linecap:butt;stroke-linejoin:miter;stroke-opacity:1"
       d="m 4.3710122,264.75983 -0.90683,2.44257 0.76014,1.84314 0.83157,-1.90152 z"
       id="path966"
       inkscape:connector-curvature="0"
       sodipodi:nodetypes="ccccc" />
    <path
       sodipodi:nodetypes="ccccc"
       inkscape:connector-curvature="0"
       id="path968"
       d="m 11.363572,271.46891 -0.90683,2.44257 0.76014,1.84314 0.83157,-1.90152 z"
       style="fill:#542c0b;fill-opacity:1;stroke:none;stroke-width:0.10650816px;stroke-linecap:butt;stroke-linejoin:miter;stroke-opacity:1" />
    <path
       style="fill:#542c0b;fill-opacity:1;stroke:none;stroke-width:0.10650816px;stroke-linecap:butt;stroke-linejoin:miter;stroke-opacity:1"
       d="m 9.473691,266.55522 -0.90683,2.44257 0.76014,1.84314 0.83157,-1.90152 z"
       id="path970"
       inkscape:connector-curvature="0"
       sodipodi:nodetypes="ccccc" />
    <rect
       y="220.79997"
       x="110.06667"
       height="8.4666643"
       width="16.933334"
       id="rect972"
       style="opacity:1;fill:#754d16;fill-opacity:1;stroke:none;stroke-width:1.33038735;stroke-linecap:round;stroke-linejoin:round;stroke-miterlimit:4;stroke-dasharray:none;stroke-dashoffset:14.5;stroke-opacity:1" />
    <path
       sodipodi:nodetypes="cccccccc"
       inkscape:connector-curvature="0"
       id="path974"
       d="M 110.06667,220.79997 H 127 v 3.34483 c -2.3392,0 -1.53739,-1.79539 -4.23333,-1.79539 -2.69308,0 -2.00821,1.79539 -4.23333,1.79539 -1.86686,0 -1.89449,-1.6064 -4.23334,-1.6064 -2.55177,0 -1.82362,1.6064 -4.23333,1.6064 z"
       style="opacity:1;fill:#3e8520;fill-opacity:1;stroke:none;stroke-width:1.33038759;stroke-linecap:round;stroke-linejoin:round;stroke-miterlimit:4;stroke-dasharray:none;stroke-dashoffset:14.5;stroke-opacity:1" />
    <path
       sodipodi:nodetypes="cccccccc"
       inkscape:connector-curvature="0"
       id="path976"
       d="M 110.06667,220.79997 H 127 v 2.08723 c -2.24473,0 -2.24881,-1.53553 -4.23333,-1.53553 -2.69349,0 -2.17144,1.53553 -4.23333,1.53553 -2.03656,0 -1.8,-1.55915 -4.23334,-1.55915 -1.98438,0 -2.24671,1.55915 -4.23333,1.55915 z"
       style="opacity:1;fill:#69b24a;fill-opacity:1;stroke:none;stroke-width:0.76809961;stroke-linecap:round;stroke-linejoin:round;stroke-miterlimit:4;stroke-dasharray:none;stroke-dashoffset:14.5;stroke-opacity:1" />
    <path
       style="opacity:1;fill:#3e8520;fill-opacity:1;stroke:none;stroke-width:1.33038759;stroke-linecap:round;stroke-linejoin:round;stroke-miterlimit:4;stroke-dasharray:none;stroke-dashoffset:14.5;stroke-opacity:1"
       d="m 127.00001,229.26663 h -16.93333 v -3.34483 c 2.3392,0 1.53739,1.79539 4.23333,1.79539 2.69308,0 2.00821,-1.79539 4.23333,-1.79539 1.86686,0 1.89449,1.6064 4.23334,1.6064 2.55177,0 1.82362,-1.6064 4.23333,-1.6064 z"
       id="path987"
       inkscape:connector-curvature="0"
       sodipodi:nodetypes="cccccccc" />
    <path
       style="opacity:1;fill:#69b24a;fill-opacity:1;stroke:none;stroke-width:0.76809961;stroke-linecap:round;stroke-linejoin:round;stroke-miterlimit:4;stroke-dasharray:none;stroke-dashoffset:14.5;stroke-opacity:1"
       d="m 127.00001,229.26663 h -16.93333 v -2.08723 c 2.24473,0 2.24881,1.53553 4.23333,1.53553 2.69349,0 2.17144,-1.53553 4.23333,-1.53553 2.03656,0 1.8,1.55915 4.23334,1.55915 1.98438,0 2.24671,-1.55915 4.23333,-1.55915 z"
       id="path989"
       inkscape:connector-curvature="0"
       sodipodi:nodetypes="cccccccc" />
    <g
       id="g1008"
       transform="translate(-42.333326,25.399978)">
      <rect
         y="220.79997"
         x="110.06667"
         height="8.4666643"
         width="16.933334"
         id="rect998"
         style="opacity:1;fill:#754d16;fill-opacity:1;stroke:none;stroke-width:1.33038735;stroke-linecap:round;stroke-linejoin:round;stroke-miterlimit:4;stroke-dasharray:none;stroke-dashoffset:14.5;stroke-opacity:1" />
      <path
         sodipodi:nodetypes="cccccccc"
         inkscape:connector-curvature="0"
         id="path1000"
         d="M 110.06667,220.79997 H 127 v 3.34483 c -2.3392,0 -1.53739,-1.79539 -4.23333,-1.79539 -2.69308,0 -2.00821,1.79539 -4.23333,1.79539 -1.86686,0 -1.89449,-1.6064 -4.23334,-1.6064 -2.55177,0 -1.82362,1.6064 -4.23333,1.6064 z"
         style="opacity:1;fill:#3e8520;fill-opacity:1;stroke:none;stroke-width:1.33038759;stroke-linecap:round;stroke-linejoin:round;stroke-miterlimit:4;stroke-dasharray:none;stroke-dashoffset:14.5;stroke-opacity:1" />
      <path
         sodipodi:nodetypes="cccccccc"
         inkscape:connector-curvature="0"
         id="path1002"
         d="M 110.06667,220.79997 H 127 v 2.08723 c -2.24473,0 -2.24881,-1.53553 -4.23333,-1.53553 -2.69349,0 -2.17144,1.53553 -4.23333,1.53553 -2.03656,0 -1.8,-1.55915 -4.23334,-1.55915 -1.98438,0 -2.24671,1.55915 -4.23333,1.55915 z"
         style="opacity:1;fill:#69b24a;fill-opacity:1;stroke:none;stroke-width:0.76809961;stroke-linecap:round;stroke-linejoin:round;stroke-miterlimit:4;stroke-dasharray:none;stroke-dashoffset:14.5;stroke-opacity:1" />
      <path
         style="opacity:1;fill:#3e8520;fill-opacity:1;stroke:none;stroke-width:1.33038759;stroke-linecap:round;stroke-linejoin:round;stroke-miterlimit:4;stroke-dasharray:none;stroke-dashoffset:14.5;stroke-opacity:1"
         d="m 127.00001,229.26663 h -16.93333 v -3.34483 c 2.3392,0 1.53739,1.79539 4.23333,1.79539 2.69308,0 2.00821,-1.79539 4.23333,-1.79539 1.86686,0 1.89449,1.6064 4.23334,1.6064 2.55177,0 1.82362,-1.6064 4.23333,-1.6064 z"
         id="path1004"
         inkscape:connector-curvature="0"
         sodipodi:nodetypes="cccccccc" />
      <path
         style="opacity:1;fill:#69b24a;fill-opacity:1;stroke:none;stroke-width:0.76809961;stroke-linecap:round;stroke-linejoin:round;stroke-miterlimit:4;stroke-dasharray:none;stroke-dashoffset:14.5;stroke-opacity:1"
         d="m 127.00001,229.26663 h -16.93333 v -2.08723 c 2.24473,0 2.24881,1.53553 4.23333,1.53553 2.69349,0 2.17144,-1.53553 4.23333,-1.53553 2.03656,0 1.8,1.55915 4.23334,1.55915 1.98438,0 2.24671,-1.55915 4.23333,-1.55915 z"
         id="path1006"
         inkscape:connector-curvature="0"
         sodipodi:nodetypes="cccccccc" />
    </g>
    <g
       id="g1046"
       transform="translate(-16.933332,42.333334)">
      <rect
         style="opacity:1;fill:#754d16;fill-opacity:1;stroke:none;stroke-width:0.40076563;stroke-linecap:round;stroke-linejoin:round;stroke-miterlimit:4;stroke-dasharray:none;stroke-dashoffset:14.5;stroke-opacity:1"
         id="rect1034"
         width="2.9517965"
         height="4.4075084"
         x="84.666687"
         y="223.00494"
         ry="0" />
      <rect
         ry="0.53152901"
         y="220.79997"
         x="87.055405"
         height="8.4666643"
         width="14.544613"
         id="rect1015"
         style="opacity:1;fill:#754d16;fill-opacity:1;stroke:none;stroke-width:1.23298538;stroke-linecap:round;stroke-linejoin:round;stroke-miterlimit:4;stroke-dasharray:none;stroke-dashoffset:14.5;stroke-opacity:1" />
      <path
         sodipodi:nodetypes="ccccccccc"
         inkscape:connector-curvature="0"
         id="path1017"
         d="m 85.869391,221.702 2.854001,-0.90203 H 101.6 v 3.34483 c -2.339196,0 -1.53739,-1.79539 -4.233322,-1.79539 -2.69308,0 -2.00821,1.79539 -4.23333,1.79539 -1.86686,0 -1.89449,-1.6064 -4.23334,-1.6064 -2.55177,0 -1.82362,1.6064 -4.23333,1.6064 0,-2.87625 -0.0021,-1.1317 1.202713,-2.4428 z"
         style="opacity:1;fill:#3e8520;fill-opacity:1;stroke:none;stroke-width:1.33038759;stroke-linecap:round;stroke-linejoin:round;stroke-miterlimit:4;stroke-dasharray:none;stroke-dashoffset:14.5;stroke-opacity:1" />
      <path
         sodipodi:nodetypes="cccccccc"
         inkscape:connector-curvature="0"
         id="path1019"
         d="M 87.73977,220.79997 H 101.6 v 2.08723 c -2.244726,0 -2.248806,-1.53553 -4.233322,-1.53553 -2.69349,0 -2.17144,1.53553 -4.23333,1.53553 -2.03656,0 -1.8,-1.55915 -4.23334,-1.55915 -1.98438,0 -2.24671,1.55915 -4.23333,1.55915 0,0 -0.03392,-2.08723 3.073092,-2.08723 z"
         style="opacity:1;fill:#69b24a;fill-opacity:1;stroke:none;stroke-width:0.76809961;stroke-linecap:round;stroke-linejoin:round;stroke-miterlimit:4;stroke-dasharray:none;stroke-dashoffset:14.5;stroke-opacity:1" />
      <path
         style="opacity:1;fill:#3e8520;fill-opacity:1;stroke:none;stroke-width:1.33038759;stroke-linecap:round;stroke-linejoin:round;stroke-miterlimit:4;stroke-dasharray:none;stroke-dashoffset:14.5;stroke-opacity:1"
         d="m 85.869412,228.3646 2.854001,0.90203 h 12.876607 v -3.34483 c -2.339195,0 -1.53739,1.79539 -4.233321,1.79539 -2.69308,0 -2.00821,-1.79539 -4.23333,-1.79539 -1.86686,0 -1.89449,1.6064 -4.23334,1.6064 -2.55177,0 -1.82362,-1.6064 -4.23333,-1.6064 0,2.87625 -0.0021,1.1317 1.202713,2.4428 z"
         id="path1036"
         inkscape:connector-curvature="0"
         sodipodi:nodetypes="ccccccccc" />
      <path
         style="opacity:1;fill:#69b24a;fill-opacity:1;stroke:none;stroke-width:0.76809961;stroke-linecap:round;stroke-linejoin:round;stroke-miterlimit:4;stroke-dasharray:none;stroke-dashoffset:14.5;stroke-opacity:1"
         d="m 87.739791,229.26663 h 13.860229 v -2.08723 c -2.244725,0 -2.248805,1.53553 -4.233321,1.53553 -2.69349,0 -2.17144,-1.53553 -4.23333,-1.53553 -2.03656,0 -1.8,1.55915 -4.23334,1.55915 -1.98438,0 -2.24671,-1.55915 -4.23333,-1.55915 0,0 -0.03392,2.08723 3.073092,2.08723 z"
         id="path1038"
         inkscape:connector-curvature="0"
         sodipodi:nodetypes="cccccccc" />
    </g>
    <g
       transform="matrix(-1,0,0,1,186.26667,42.333334)"
       id="g1060">
      <rect
         ry="0"
         y="223.00494"
         x="84.666687"
         height="4.4075084"
         width="2.9517965"
         id="rect1048"
         style="opacity:1;fill:#754d16;fill-opacity:1;stroke:none;stroke-width:0.40076563;stroke-linecap:round;stroke-linejoin:round;stroke-miterlimit:4;stroke-dasharray:none;stroke-dashoffset:14.5;stroke-opacity:1" />
      <rect
         style="opacity:1;fill:#754d16;fill-opacity:1;stroke:none;stroke-width:1.23298538;stroke-linecap:round;stroke-linejoin:round;stroke-miterlimit:4;stroke-dasharray:none;stroke-dashoffset:14.5;stroke-opacity:1"
         id="rect1050"
         width="14.544613"
         height="8.4666643"
         x="87.055405"
         y="220.79997"
         ry="0.53152901" />
      <path
         style="opacity:1;fill:#3e8520;fill-opacity:1;stroke:none;stroke-width:1.33038759;stroke-linecap:round;stroke-linejoin:round;stroke-miterlimit:4;stroke-dasharray:none;stroke-dashoffset:14.5;stroke-opacity:1"
         d="m 85.869391,221.702 2.854001,-0.90203 H 101.6 v 3.34483 c -2.339196,0 -1.53739,-1.79539 -4.233322,-1.79539 -2.69308,0 -2.00821,1.79539 -4.23333,1.79539 -1.86686,0 -1.89449,-1.6064 -4.23334,-1.6064 -2.55177,0 -1.82362,1.6064 -4.23333,1.6064 0,-2.87625 -0.0021,-1.1317 1.202713,-2.4428 z"
         id="path1052"
         inkscape:connector-curvature="0"
         sodipodi:nodetypes="ccccccccc" />
      <path
         style="opacity:1;fill:#69b24a;fill-opacity:1;stroke:none;stroke-width:0.76809961;stroke-linecap:round;stroke-linejoin:round;stroke-miterlimit:4;stroke-dasharray:none;stroke-dashoffset:14.5;stroke-opacity:1"
         d="M 87.73977,220.79997 H 101.6 v 2.08723 c -2.244726,0 -2.248806,-1.53553 -4.233322,-1.53553 -2.69349,0 -2.17144,1.53553 -4.23333,1.53553 -2.03656,0 -1.8,-1.55915 -4.23334,-1.55915 -1.98438,0 -2.24671,1.55915 -4.23333,1.55915 0,0 -0.03392,-2.08723 3.073092,-2.08723 z"
         id="path1054"
         inkscape:connector-curvature="0"
         sodipodi:nodetypes="cccccccc" />
      <path
         sodipodi:nodetypes="ccccccccc"
         inkscape:connector-curvature="0"
         id="path1056"
         d="m 85.869412,228.3646 2.854001,0.90203 h 12.876607 v -3.34483 c -2.339195,0 -1.53739,1.79539 -4.233321,1.79539 -2.69308,0 -2.00821,-1.79539 -4.23333,-1.79539 -1.86686,0 -1.89449,1.6064 -4.23334,1.6064 -2.55177,0 -1.82362,-1.6064 -4.23333,-1.6064 0,2.87625 -0.0021,1.1317 1.202713,2.4428 z"
         style="opacity:1;fill:#3e8520;fill-opacity:1;stroke:none;stroke-width:1.33038759;stroke-linecap:round;stroke-linejoin:round;stroke-miterlimit:4;stroke-dasharray:none;stroke-dashoffset:14.5;stroke-opacity:1" />
      <path
         sodipodi:nodetypes="cccccccc"
         inkscape:connector-curvature="0"
         id="path1058"
         d="m 87.739791,229.26663 h 13.860229 v -2.08723 c -2.244725,0 -2.248805,1.53553 -4.233321,1.53553 -2.69349,0 -2.17144,-1.53553 -4.23333,-1.53553 -2.03656,0 -1.8,1.55915 -4.23334,1.55915 -1.98438,0 -2.24671,-1.55915 -4.23333,-1.55915 0,0 -0.03392,2.08723 3.073092,2.08723 z"
         style="opacity:1;fill:#69b24a;fill-opacity:1;stroke:none;stroke-width:0.76809961;stroke-linecap:round;stroke-linejoin:round;stroke-miterlimit:4;stroke-dasharray:none;stroke-dashoffset:14.5;stroke-opacity:1" />
    </g>
  </g>
</svg>
